<svg width="41" height="41" viewBox="0 0 41 41" fill="none" xmlns="http://www.w3.org/2000/svg">
<path d="M23.534 17.463C23.2507 17.1457 22.8143 16.8567 22.225 16.596C21.6357 16.3353 20.9783 16.205 20.253 16.205C19.3237 16.205 18.638 16.3807 18.196 16.732C17.754 17.0833 17.533 17.565 17.533 18.177C17.533 18.6077 17.6463 18.9477 17.873 19.197C18.0997 19.4463 18.4453 19.6503 18.91 19.809C19.386 19.9677 19.9867 20.132 20.712 20.302C21.5507 20.4833 22.276 20.7043 22.888 20.965C23.5 21.2257 23.9703 21.577 24.299 22.019C24.6277 22.4497 24.792 23.0277 24.792 23.753C24.792 24.5237 24.5993 25.1583 24.214 25.657C23.8287 26.1557 23.3017 26.524 22.633 26.762C21.9757 27 21.2333 27.119 20.406 27.119C18.5247 27.119 16.887 26.5523 15.493 25.419L16.224 24.127C16.4733 24.3763 16.8077 24.6257 17.227 24.875C17.6577 25.1243 18.145 25.334 18.689 25.504C19.2443 25.6627 19.828 25.742 20.44 25.742C21.3013 25.742 21.97 25.589 22.446 25.283C22.922 24.9657 23.16 24.5067 23.16 23.906C23.16 23.4527 23.024 23.09 22.752 22.818C22.4913 22.546 22.1003 22.3193 21.579 22.138C21.0577 21.9567 20.423 21.7753 19.675 21.594C18.859 21.39 18.1733 21.169 17.618 20.931C17.0627 20.6817 16.6433 20.3587 16.36 19.962C16.088 19.5653 15.952 19.0497 15.952 18.415C15.952 17.6443 16.139 16.9927 16.513 16.46C16.887 15.9273 17.4027 15.525 18.06 15.253C18.7173 14.981 19.4597 14.845 20.287 14.845C21.0917 14.845 21.8227 14.9697 22.48 15.219C23.1487 15.4683 23.738 15.8027 24.248 16.222L23.534 17.463Z" fill="black"/>
<rect x="0.5" y="0.5" width="40" height="40" stroke="black"/>
</svg>
